<?xml version="1.0" encoding="utf-8"?>
<svg xmlns="http://www.w3.org/2000/svg" viewBox="0 0 24 24" width="150" height="150">
  <path d="M3 5C1.9069372 5 1 5.9069372 1 7L1 18C1 19.093063 1.9069372 20 3 20L21 20C22.093063 20 23 19.093063 23 18L23 7C23 5.9069372 22.093063 5 21 5L3 5 z M 3 7L21 7L21 18L3 18L3 7 z M 8 10C6.895 10 6 10.895 6 12L6 13C6 14.105 6.895 15 8 15C9.105 15 10 14.105 10 13L9 13C9 13.551 8.551 14 8 14C7.449 14 7 13.551 7 13L7 12C7 11.449 7.449 11 8 11C8.551 11 9 11.449 9 12L10 12C10 10.895 9.105 10 8 10 z M 13 10L12.800781 11L11.800781 11L11.599609 12L12.599609 12L12.400391 13L11.400391 13L11.199219 14L12.199219 14L12 15L13 15L13.199219 14L14.199219 14L14 15L15 15L15.199219 14L16.199219 14L16.400391 13L15.400391 13L15.599609 12L16.599609 12L16.800781 11L15.800781 11L16 10L15 10L14.800781 11L13.800781 11L14 10L13 10 z M 13.599609 12L14.599609 12L14.400391 13L13.400391 13L13.599609 12 z" fill="#FFFFFF" />
</svg>